<svg width="22" height="22" viewBox="0 0 22 22" fill="none" xmlns="http://www.w3.org/2000/svg">
<path d="M1.66667 13.3584C2.311 13.3584 2.83333 13.8807 2.83333 14.5251V16.9394C2.83333 18.1695 3.83052 19.1667 5.06061 19.1667H7.62678C8.27111 19.1667 8.79344 19.689 8.79344 20.3333C8.79344 20.9777 8.27111 21.5 7.62678 21.5H5.06061C2.54185 21.5 0.5 19.4581 0.5 16.9394V14.5251C0.5 13.8807 1.02233 13.3584 1.66667 13.3584ZM20.3333 13.3118C20.9777 13.3118 21.5 13.8341 21.5 14.4785V16.9394C21.5 19.4581 19.4581 21.5 16.9394 21.5H14.4923C13.848 21.5 13.3257 20.9777 13.3257 20.3333C13.3257 19.689 13.848 19.1667 14.4923 19.1667H16.9394C18.1695 19.1667 19.1667 18.1695 19.1667 16.9394V14.4785C19.1667 13.8341 19.689 13.3118 20.3333 13.3118ZM16.9394 14.3939C17.408 14.3939 17.7879 14.7738 17.7879 15.2424C17.7879 15.711 17.408 16.0909 16.9394 16.0909H5.06061C4.592 16.0909 4.21212 15.711 4.21212 15.2424C4.21212 14.7738 4.592 14.3939 5.06061 14.3939H16.9394ZM16.9394 10.1515C17.408 10.1515 17.7879 10.5314 17.7879 11C17.7879 11.4686 17.408 11.8485 16.9394 11.8485H5.06061C4.592 11.8485 4.21212 11.4686 4.21212 11C4.21212 10.5314 4.592 10.1515 5.06061 10.1515H16.9394ZM16.9394 0.5C19.4581 0.5 21.5 2.54185 21.5 5.06061V8.50778C21.5 9.15211 20.9777 9.67445 20.3333 9.67445C19.689 9.67445 19.1667 9.15211 19.1667 8.50778V5.06061C19.1667 3.83052 18.1695 2.83333 16.9394 2.83333H14.4026C13.7583 2.83333 13.236 2.311 13.236 1.66667C13.236 1.02233 13.7583 0.5 14.4026 0.5H16.9394ZM7.60088 0.5C8.24521 0.5 8.76755 1.02233 8.76755 1.66667C8.76755 2.311 8.24521 2.83333 7.60088 2.83333H5.06061C3.83052 2.83333 2.83333 3.83052 2.83333 5.06061V7.67421C2.83333 8.31855 2.311 8.84088 1.66667 8.84088C1.02233 8.84088 0.5 8.31855 0.5 7.67421V5.06061C0.5 2.54185 2.54185 0.5 5.06061 0.5H7.60088ZM16.9394 5.90909C17.408 5.90909 17.7879 6.28897 17.7879 6.75758C17.7879 7.22618 17.408 7.60606 16.9394 7.60606H5.06061C4.592 7.60606 4.21212 7.22618 4.21212 6.75758C4.21212 6.28897 4.592 5.90909 5.06061 5.90909H16.9394Z" fill="white"/>
</svg>
